<?xml version="1.0" encoding="UTF-8"?>
<svg xmlns="http://www.w3.org/2000/svg" viewBox="-13 -13 126 126" data-anchor="center">
<desc>The group medallion: a ring of marigold petals cut round a gold bezel, so the frame is a flower. A ring of petals, never a string of flowers: a garland around a portrait is for the departed. From motifs.mjs medallion({ petals }) (#240). Original f-tree work, MIT.</desc>
<circle data-clip="opening" cx="50" cy="50" r="50"/>
<rect data-zone="face" x="28" y="20" width="44" height="46"/>
<defs><path id="petal" d="M50 -1.2C53 -3.4 53 -8.8 50 -11.6C47 -8.8 47 -3.4 50 -1.2Z" fill="#f2a71b"/></defs>
<use href="#petal" transform="rotate(0 50 50)"/>
<use href="#petal" transform="rotate(18 50 50)" fill="#e8762b"/>
<use href="#petal" transform="rotate(36 50 50)"/>
<use href="#petal" transform="rotate(54 50 50)" fill="#e8762b"/>
<use href="#petal" transform="rotate(72 50 50)"/>
<use href="#petal" transform="rotate(90 50 50)" fill="#e8762b"/>
<use href="#petal" transform="rotate(108 50 50)"/>
<use href="#petal" transform="rotate(126 50 50)" fill="#e8762b"/>
<use href="#petal" transform="rotate(144 50 50)"/>
<use href="#petal" transform="rotate(162 50 50)" fill="#e8762b"/>
<use href="#petal" transform="rotate(180 50 50)"/>
<use href="#petal" transform="rotate(198 50 50)" fill="#e8762b"/>
<use href="#petal" transform="rotate(216 50 50)"/>
<use href="#petal" transform="rotate(234 50 50)" fill="#e8762b"/>
<use href="#petal" transform="rotate(252 50 50)"/>
<use href="#petal" transform="rotate(270 50 50)" fill="#e8762b"/>
<use href="#petal" transform="rotate(288 50 50)"/>
<use href="#petal" transform="rotate(306 50 50)" fill="#e8762b"/>
<use href="#petal" transform="rotate(324 50 50)"/>
<use href="#petal" transform="rotate(342 50 50)" fill="#e8762b"/>
<path d="M103 50A53 53 0 1 1 -3 50A53 53 0 1 1 103 50ZM100 50A50 50 0 1 1 0 50A50 50 0 1 1 100 50Z" fill="#fff8ec" fill-rule="evenodd"/>
<circle cx="50" cy="50" r="50" fill="none" stroke="#f2b84b" stroke-width="1.9"/>
</svg>
