<?xml version="1.0" encoding="UTF-8"?>
<svg xmlns="http://www.w3.org/2000/svg" viewBox="0 0 100 100" data-anchor="bottom-center">
<desc>The hero with no photograph: a person whose record gives no gender, as a child, seen from behind at a window, looking out at the view. Built from the shared back-* cuts; converted from motifs.mjs backBust() (#240). Original f-tree work, MIT.</desc>
<rect data-zone="busy" x="34.1" y="17.36" width="34.8" height="82.64"/>
<g data-asset="back-shoulders" transform="matrix(0.74 0 0 0.8 13 20)" fill="#b5562a"/>
<g data-asset="back-collar" transform="matrix(0.74 0 0 0.8 13 20)"/>
<g data-asset="back-shawl" transform="translate(1 1.4) matrix(0.74 0 0 0.8 13 20)" fill="#2a1a33" opacity="0.2"/>
<g data-asset="back-shawl" transform="matrix(0.74 0 0 0.8 13 20)" fill="#e8762b"/>
<g data-asset="back-shawl-border" transform="matrix(0.74 0 0 0.8 13 20)"/>
<g data-asset="back-head" transform="translate(0.8 1.2) matrix(0.94 0 0 0.94 2.09 13.28)" fill="#2a1a33" opacity="0.18"/>
<g data-asset="back-head" transform="matrix(0.94 0 0 0.94 2.09 13.28)"/>
<g data-asset="back-hair-round" transform="translate(0.6 1.3) matrix(0.94 0 0 0.94 2.09 13.28)" fill="#2a1a33" opacity="0.25"/>
<g data-asset="back-hair-round" transform="matrix(0.94 0 0 0.94 2.09 13.28)"/>
</svg>
